<svg width="50" height="50" viewBox="0 0 50 50" fill="none" xmlns="http://www.w3.org/2000/svg">
<path d="M24.2188 9.375C15.1543 9.375 7.8125 16.544 7.8125 25.3952C7.8125 32.4842 12.5088 38.4717 19.0303 40.5944C19.8506 40.7346 20.1582 40.254 20.1582 39.8334C20.1582 39.453 20.1377 38.1914 20.1377 36.8497C16.0156 37.5906 14.9492 35.8684 14.6211 34.9673C14.4365 34.5067 13.6367 33.0849 12.9395 32.7044C12.3652 32.4041 11.5449 31.6631 12.9189 31.6431C14.2109 31.6231 15.1338 32.8046 15.4414 33.2852C16.918 35.7082 19.2764 35.0274 20.2197 34.6068C20.3633 33.5655 20.7939 32.8646 21.2656 32.4641C17.6152 32.0636 13.8008 30.6819 13.8008 24.5542C13.8008 22.812 14.4365 21.3701 15.4824 20.2487C15.3184 19.8482 14.7441 18.2061 15.6465 16.0034C15.6465 16.0034 17.0205 15.5828 20.1582 17.6454C21.4707 17.285 22.8652 17.1048 24.2598 17.1048C25.6543 17.1048 27.0488 17.285 28.3613 17.6454C31.499 15.5628 32.873 16.0034 32.873 16.0034C33.7754 18.2061 33.2012 19.8482 33.0371 20.2487C34.083 21.3701 34.7187 22.7919 34.7187 24.5542C34.7187 30.7019 30.8838 32.0636 27.2334 32.4641C27.8281 32.9648 28.3408 33.926 28.3408 35.4279C28.3408 37.5706 28.3203 39.2928 28.3203 39.8334C28.3203 40.254 28.6279 40.7546 29.4482 40.5944C32.7054 39.521 35.5357 37.4771 37.5407 34.7505C39.5457 32.0239 40.6244 28.7519 40.625 25.3952C40.625 16.544 33.2832 9.375 24.2188 9.375Z" fill="#ABB2BF"/>
</svg>
