<svg width="50" height="50" viewBox="0 0 50 50" fill="none" xmlns="http://www.w3.org/2000/svg">
<path d="M6.25 8.93594C6.25 7.45234 7.48281 6.25 9.00391 6.25H40.9961C42.5172 6.25 43.75 7.45234 43.75 8.93594V41.0641C43.75 42.5477 42.5172 43.75 40.9961 43.75H9.00391C7.48281 43.75 6.25 42.5477 6.25 41.0641V8.93594ZM17.8352 37.6422V20.7086H12.2078V37.6422H17.8352ZM15.0227 18.3953C16.9844 18.3953 18.2055 17.0969 18.2055 15.4703C18.1703 13.8086 16.9867 12.5453 15.0602 12.5453C13.1336 12.5453 11.875 13.8109 11.875 15.4703C11.875 17.0969 13.0961 18.3953 14.9852 18.3953H15.0227ZM26.5258 37.6422V28.1852C26.5258 27.6789 26.5633 27.1727 26.7133 26.8117C27.1187 25.8016 28.0445 24.7539 29.6008 24.7539C31.6375 24.7539 32.4508 26.3055 32.4508 28.5836V37.6422H38.0781V27.9297C38.0781 22.7266 35.3031 20.3078 31.6 20.3078C28.6141 20.3078 27.2758 21.9484 26.5258 23.1039V23.1625H26.4883C26.5007 23.1429 26.5132 23.1234 26.5258 23.1039V20.7086H20.9008C20.9711 22.2977 20.9008 37.6422 20.9008 37.6422H26.5258Z" fill="#ABB2BF"/>
</svg>
