<svg width="50" height="50" viewBox="0 0 50 50" fill="none" xmlns="http://www.w3.org/2000/svg">
<path d="M7.9248 14.3796C8.15125 13.4017 8.70792 12.5286 9.50363 11.9033C10.2993 11.278 11.2869 10.9374 12.3047 10.9375H39.2578C40.2756 10.9374 41.2632 11.278 42.0589 11.9033C42.8546 12.5286 43.4112 13.4017 43.6377 14.3796L25.7812 25.1352L7.9248 14.3796ZM7.8125 16.9074V32.6324L20.8466 24.7566L7.8125 16.9074ZM22.9983 26.056L8.2415 34.9699C8.6061 35.7276 9.18155 36.3676 9.90088 36.8155C10.6202 37.2634 11.4538 37.5008 12.3047 37.5H39.2578C40.1085 37.5002 40.9419 37.2623 41.6608 36.814C42.3797 36.3657 42.9546 35.7254 43.3187 34.9677L28.5619 26.0538L25.7812 27.7294L22.9983 26.0538V26.056ZM30.7159 24.7589L43.75 32.6324V16.9074L30.7159 24.7566V24.7589Z" fill="#ABB2BF"/>
</svg>
