<svg width="21" height="21" viewBox="0 0 21 21" fill="none" xmlns="http://www.w3.org/2000/svg">
<path d="M0.5 1.96875C0.5 1.44661 0.710713 0.945846 1.08579 0.576633C1.46086 0.207421 1.96957 0 2.5 0H18.5C19.0304 0 19.5391 0.207421 19.9142 0.576633C20.2893 0.945846 20.5 1.44661 20.5 1.96875V5.90625C20.5 6.42839 20.2893 6.92915 19.9142 7.29837C19.5391 7.66758 19.0304 7.875 18.5 7.875C17.9696 7.875 17.4609 7.66758 17.0858 7.29837C16.7107 6.92915 16.5 6.42839 16.5 5.90625V3.9375H12.5V17.0625H13.1667C13.6971 17.0625 14.2058 17.2699 14.5809 17.6391C14.956 18.0083 15.1667 18.5091 15.1667 19.0312C15.1667 19.5534 14.956 20.0542 14.5809 20.4234C14.2058 20.7926 13.6971 21 13.1667 21H7.83333C7.3029 21 6.79419 20.7926 6.41912 20.4234C6.04405 20.0542 5.83333 19.5534 5.83333 19.0312C5.83333 18.5091 6.04405 18.0083 6.41912 17.6391C6.79419 17.2699 7.3029 17.0625 7.83333 17.0625H8.5V3.9375H4.5V5.90625C4.5 6.42839 4.28929 6.92915 3.91421 7.29837C3.53914 7.66758 3.03043 7.875 2.5 7.875C1.96957 7.875 1.46086 7.66758 1.08579 7.29837C0.710713 6.92915 0.5 6.42839 0.5 5.90625V1.96875Z" fill="#ABB2BF"/>
</svg>
